<svg width="100" height="100" viewBox="0 0 100 100" fill="none" xmlns="http://www.w3.org/2000/svg">
<rect width="100" height="100" rx="12" fill="#0F0F10"/>
<circle cx="58" cy="50" r="26" stroke="#EDEDED" stroke-width="8"/>
<path d="M64 52.1751V86.9388C64 88.0826 64.9281 89.0013 66.0625 89.0013C66.6531 89.0013 67.225 88.7482 67.6187 88.2982L75.3625 79.4385L80.8094 90.342C81.55 91.8233 83.35 92.4233 84.8312 91.6827C86.3125 90.942 86.9125 89.142 86.1719 87.6607L80.8563 77.0009H91.9281C93.0719 77.0009 94 76.0728 94 74.929C94 74.3383 93.7469 73.7758 93.3063 73.3821L67.6187 50.5531C67.2156 50.1969 66.7094 50 66.175 50C64.975 50 64 50.975 64 52.1751Z" fill="#0F0F10"/>
<path d="M68 59.45V82.625C68 83.3875 68.6187 84 69.375 84C69.7688 84 70.15 83.8313 70.4125 83.5312L75.575 77.625L79.2063 84.8937C79.7 85.8812 80.9 86.2813 81.8875 85.7875C82.875 85.2938 83.275 84.0938 82.7812 83.1063L79.2375 76H86.6187C87.3812 76 88 75.3812 88 74.6187C88 74.225 87.8313 73.85 87.5375 73.5875L70.4125 58.3688C70.1437 58.1313 69.8063 58 69.45 58C68.65 58 68 58.65 68 59.45Z" fill="#EDEDED"/>
<rect x="13" y="20" width="8" height="60" rx="2" fill="#EDEDED"/>
</svg>
